<svg width="39" height="40" viewBox="0 0 39 40" fill="none" xmlns="http://www.w3.org/2000/svg">
<path d="M14.2208 4.98875C15.6455 4.48923 17.2113 5.16291 17.7174 6.49279C18.1048 7.51097 17.7581 8.61775 16.9363 9.30535L17.3804 10.5163L18.0869 11.3316C18.2482 11.5182 18.4928 11.6074 18.738 11.5773C19.3991 11.4959 20.056 11.4929 20.6993 11.5605C20.9173 11.5837 21.1342 11.5117 21.2907 11.3596L21.8005 10.8662L22.1764 9.77191C21.8566 9.33299 21.7483 8.75171 21.9379 8.1994C22.2597 7.26312 23.3107 6.77922 24.2454 7.16263C25.0506 7.49251 25.4887 8.38814 25.253 9.22159C25.1032 9.75245 24.7241 10.1501 24.2576 10.3468L23.8415 11.5595L23.9364 12.2276C23.969 12.4573 24.1054 12.658 24.3047 12.7782C24.9746 13.1848 25.5899 13.6818 26.1301 14.2563C26.3116 14.4497 26.5824 14.5326 26.8427 14.4801L28.1825 14.2112L29.6961 13.3717C29.7039 12.6275 30.1017 11.9079 30.8019 11.5195C31.8606 10.9327 33.2014 11.3271 33.7655 12.4024C34.2748 13.3726 33.9551 14.592 33.0327 15.1893C32.3124 15.6548 31.4335 15.6378 30.7551 15.2402L29.2325 16.0841L28.3823 16.9872C28.1541 17.2295 28.0728 17.5721 28.1599 17.8929C28.1604 17.8948 28.1607 17.8961 28.1612 17.898C28.3102 18.4508 28.4006 19.0064 28.438 19.5571C28.4597 19.8852 28.6454 20.1804 28.9362 20.3372L30.0459 20.9353L32.2454 21.3501C32.6331 21.0125 33.1672 20.8492 33.7129 20.9516C34.6915 21.1364 35.3215 22.1048 35.0708 23.0797C34.8551 23.9146 34.0325 24.4704 33.1723 24.361C32.5857 24.2864 32.1121 23.9338 31.8578 23.4599L29.6441 23.0428L28.2787 23.2089C28.027 23.2401 27.8072 23.3975 27.7046 23.628C27.296 24.538 26.7323 25.3749 26.0363 26.0973C25.8634 26.2768 25.7985 26.5338 25.8613 26.7744L26.2006 28.0844L27.0384 29.3943C27.9599 29.2564 28.9188 29.6537 29.4508 30.4857C30.1659 31.6034 29.8415 33.0835 28.7285 33.8047C27.6161 34.5257 26.1023 34.212 25.3732 33.1081C24.8627 32.3354 24.8571 31.3821 25.2709 30.6258L24.3815 29.2355L23.288 28.3384C23.1261 28.2049 22.9054 28.1695 22.7078 28.2398C22.4885 28.3179 22.2649 28.3876 22.0362 28.4486C20.7935 28.7797 19.5406 28.8224 18.3489 28.6199C18.1742 28.5906 17.9955 28.6402 17.8619 28.7558L17.2751 29.2643L16.8386 30.3361C17.1339 30.7924 17.2093 31.3783 16.9894 31.9191C16.6156 32.8367 15.5392 33.2617 14.6276 32.8274C13.8425 32.4536 13.4548 31.5351 13.7365 30.7158C13.916 30.1939 14.3158 29.8179 14.7928 29.6474L15.2763 28.4595L15.1865 27.4162C14.3146 26.8718 13.5388 26.1731 12.9043 25.3474L11.4132 25.4942L10.0175 26.1824C10.0266 27.1158 9.54481 28.004 8.69917 28.4338C7.50426 29.0407 6.03647 28.5035 5.42117 27.2332C4.80604 25.9635 5.2752 24.4421 6.47012 23.8352C7.36433 23.3809 8.41073 23.5673 9.13879 24.2225L10.455 23.5731L11.3685 22.5963C11.4282 22.5323 11.4503 22.4425 11.4276 22.3584L11.4273 22.3572C11.0051 20.7903 11.0482 19.2064 11.4717 17.7507C11.4945 17.6708 11.4774 17.5846 11.4235 17.5211L10.6355 16.5826L8.93758 15.6942C8.46992 15.8995 7.9155 15.8989 7.42793 15.6435C6.54711 15.1821 6.22972 14.0748 6.75476 13.2158C7.21569 12.4625 8.19747 12.1765 8.99469 12.5627C9.51073 12.8125 9.84362 13.2797 9.94202 13.7966L11.6399 14.685L12.8484 14.7984C12.9323 14.8065 13.0141 14.7712 13.0674 14.7062C13.6155 14.0312 14.268 13.4355 15.0092 12.9468C15.2126 12.812 15.339 12.5887 15.3422 12.3454L15.3547 11.2518L14.881 9.96139C13.8541 9.88766 12.9251 9.26774 12.557 8.30064C12.0509 6.97077 12.7959 5.48763 14.2208 4.98875Z" fill="#EC5863"/>
<path d="M25.9898 18.4766C25.0729 15.0737 21.5559 13.0543 18.1342 13.9661C14.7125 14.8779 12.6819 18.3756 13.5988 21.7785C14.5156 25.1814 18.0327 27.2008 21.4543 26.289C24.876 25.3772 26.9066 21.8795 25.9898 18.4766Z" fill="#F58A97"/>
<path d="M20.9484 24.411C17.8476 25.2373 14.6687 23.6565 13.4172 20.8204C13.4527 21.1392 13.5128 21.4592 13.5988 21.7785C14.5156 25.1814 18.0326 27.2008 21.4543 26.289C24.8761 25.3772 26.9066 21.8795 25.9898 18.4766C25.9037 18.1573 25.7949 17.8503 25.6653 17.5566C26.0073 20.635 24.049 23.5847 20.9484 24.411Z" fill="#F07281"/>
<path d="M11.324 33.496C11.0629 32.527 10.0614 31.9519 9.08698 32.2115C8.11258 32.4712 7.53432 33.4673 7.79541 34.4363C8.0565 35.4054 9.05806 35.9804 10.0325 35.7208C11.0069 35.4611 11.5851 34.4651 11.324 33.496Z" fill="#EB5569"/>
<path d="M34.1106 27.938C33.9381 27.2979 33.2766 26.9181 32.633 27.0896C31.9894 27.2611 31.6074 27.919 31.7799 28.5591C31.9523 29.1991 32.6139 29.579 33.2575 29.4075C33.9011 29.236 34.283 28.5781 34.1106 27.938Z" fill="#EB5569"/>
<path d="M30.8429 6.00219C30.5889 5.05942 29.6145 4.49994 28.6665 4.75255C27.7185 5.00517 27.1559 5.97422 27.4099 6.91699C27.6639 7.85976 28.6383 8.41924 29.5863 8.16662C30.5343 7.91401 31.0969 6.94496 30.8429 6.00219Z" fill="#EB5569"/>
<path d="M20.1955 22.0477C19.9587 21.1688 19.0502 20.6472 18.1664 20.8827C17.2826 21.1182 16.7581 22.0216 16.9949 22.9006C17.2318 23.7795 18.1402 24.3011 19.024 24.0656C19.9078 23.8301 20.4323 22.9267 20.1955 22.0477Z" fill="#EB5569"/>
<path d="M24.3108 19.5819C24.1496 18.9836 23.5313 18.6286 22.9297 18.7889C22.3281 18.9492 21.9711 19.5641 22.1323 20.1624C22.2935 20.7606 22.9119 21.1157 23.5134 20.9554C24.115 20.795 24.472 20.1801 24.3108 19.5819Z" fill="#EB5569"/>
<path d="M19.9578 17.0962C19.8224 16.5938 19.3032 16.2957 18.7981 16.4303C18.2929 16.5649 17.9931 17.0813 18.1285 17.5837C18.2639 18.086 18.7831 18.3842 19.2882 18.2496C19.7934 18.1149 20.0932 17.5986 19.9578 17.0962Z" fill="#EB5569"/>
</svg>
